<svg fill="#000000" xmlns="http://www.w3.org/2000/svg" viewBox="0 0 50 50" width="100px" height="100px"><path d="M 25 2 C 12.321124 2 2 12.321124 2 25 C 2 31.79596 4.9694751 37.915874 9.6660156 42.121094 A 2.0002 2.0002 0 1 0 12.333984 39.142578 C 8.4465253 35.661798 6 30.63404 6 25 C 6 14.482876 14.482876 6 25 6 C 35.517124 6 44 14.482876 44 25 C 44 30.632946 41.553697 35.660694 37.666016 39.142578 A 2.0002 2.0002 0 1 0 40.333984 42.121094 C 45.030303 37.914978 48 31.795054 48 25 C 48 12.321124 37.678876 2 25 2 z M 24.970703 20.910156 A 2.0002 2.0002 0 0 0 23 22.939453 L 23 41.111328 L 19.414062 37.525391 A 2.0002 2.0002 0 0 0 17.978516 36.917969 A 2.0002 2.0002 0 0 0 16.585938 40.353516 L 23.408203 47.175781 A 2.0002 2.0002 0 0 0 26.599609 47.167969 L 33.414062 40.353516 A 2.0002 2.0002 0 1 0 30.585938 37.525391 L 27 41.111328 L 27 22.939453 A 2.0002 2.0002 0 0 0 24.970703 20.910156 z"/></svg>